<?xml version="1.0" encoding="UTF-8"?>
<svg width="262px" height="262px" viewBox="0 0 262 262" version="1.1" xmlns="http://www.w3.org/2000/svg" xmlns:xlink="http://www.w3.org/1999/xlink">
    <title>Group 2</title>
    <defs>
        <linearGradient x1="50%" y1="0%" x2="50%" y2="100%" id="linearGradient-1">
            <stop stop-color="#F59E0B" offset="0%"></stop>
            <stop stop-color="#D97706" offset="100%"></stop>
        </linearGradient>
        <linearGradient x1="50%" y1="0%" x2="50%" y2="100%" id="linearGradient-2">
            <stop stop-color="#F59E0B" offset="0%"></stop>
            <stop stop-color="#D97706" offset="100%"></stop>
        </linearGradient>
    </defs>
    <g id="Page-1" stroke="none" stroke-width="1" fill="none" fill-rule="evenodd">
        <g id="Artboard" transform="translate(-29.000000, -29.000000)">
            <g id="Group-2" transform="translate(37.000000, 37.000000)">
                <circle id="Oval" stroke="url(#linearGradient-1)" stroke-width="8" fill="#B45309" cx="123" cy="123" r="127"></circle>
                <g id="Group" transform="translate(65.000000, 44.000000)"></g>
                <g id="Group" transform="translate(71.000000, 44.000000)" fill="url(#linearGradient-2)" fill-rule="nonzero">
                    <path d="M26.6543438,108 C27.7966728,120.884615 38.2680222,131.076923 51.4048059,131.076923 C64.5415896,131.076923 75.2033272,120.884615 76.155268,108 L76.155268,108 L83.3900185,108 C94.051756,108 102.809612,116.653846 103,127.230769 L103,127.230769 L103,154.153846 C103,156.269231 101.096118,158 99.0018484,158 L99.0018484,158 L3.99815157,158 C1.71349353,158 0,156.269231 0,154.153846 L0,154.153846 L0,127.230769 C0,116.653846 8.75785582,108 19.4195933,108 L19.4195933,108 Z M60.3595506,95 L60.3595506,104.405405 C60.3595506,106.560811 62.0786517,108.324324 64.1797753,108.324324 L64.1797753,108.324324 L68,108.324324 C67.0449438,117.141892 59.7865169,124 51,124 C42.2134831,124 34.9550562,117.141892 34,108.324324 L34,108.324324 L37.8202247,108.324324 C39.9213483,108.324324 41.6404494,106.560811 41.6404494,104.405405 L41.6404494,104.405405 L41.6404494,95.1959459 C44.6966292,95.9797297 47.9438202,96.3716216 51.1910112,96.3716216 C54.4382022,96.3716216 57.6853933,95.7837838 60.3595506,95 L60.3595506,95 Z M51.5,28 C55.7058824,34.3461538 62.5882353,38.3846154 70.6176471,38.3846154 L70.6176471,38.3846154 L80.1764706,38.3846154 C82.2794118,38.3846154 84,40.1153846 84,42.2307692 L84,42.2307692 L84,55.1153846 C84,73.3846154 69.4705882,88 51.5,88 C33.5294118,88 19,73.3846154 19,55.1153846 L19,55.1153846 L19,42.2307692 C19,40.1153846 20.7205882,38.3846154 22.8235294,38.3846154 L22.8235294,38.3846154 L32.3823529,38.3846154 C40.4117647,38.3846154 47.2941176,34.1538462 51.5,28 Z M59.4397742,0 C69.9317634,0 79.6606989,5.78947368 85.0020753,14.8596491 C88.0542903,20.2631579 88.8173441,26.8245614 87.1004731,32.8070175 C85.1928387,31.6491228 83.0944409,30.877193 80.6145161,30.877193 L80.6145161,30.877193 L71.0763441,30.877193 C62.6827527,30.877193 55.8152688,23.9298246 55.8152688,15.4385965 C55.8152688,13.3157895 54.0983978,11.5789474 52,11.5789474 C49.9016022,11.5789474 48.1847312,13.3157895 48.1847312,15.4385965 C48.1847312,23.9298246 41.3172473,30.877193 32.9236559,30.877193 L32.9236559,30.877193 L23.3854839,30.877193 C20.9055591,30.877193 18.8071613,31.6491228 16.8995269,33 C15.1826559,27.0175439 15.9457097,20.4561404 18.9979247,15.0526316 C24.1485376,5.78947368 34.0682366,0 44.5602258,0 L44.5602258,0 Z" id="Combined-Shape"></path>
                </g>
            </g>
        </g>
    </g>
</svg>